<svg xmlns="http://www.w3.org/2000/svg" viewBox="0 0 640 360" role="img" aria-label="">
  <rect width="640" height="360" rx="24" fill="#fbfcf8"/>
  <g fill="#ffffff" stroke="#d9e0e7" stroke-width="4">
    <rect x="78" y="78" width="132" height="204" rx="16"/>
    <rect x="254" y="78" width="132" height="204" rx="16"/>
    <rect x="430" y="78" width="132" height="204" rx="16"/>
  </g>
  <g fill="#0f766e">
    <circle cx="118" cy="122" r="11"/><circle cx="150" cy="122" r="11"/><circle cx="182" cy="122" r="11"/>
    <circle cx="118" cy="166" r="11"/><circle cx="182" cy="166" r="11"/>
    <circle cx="118" cy="210" r="11"/><circle cx="150" cy="210" r="11"/><circle cx="182" cy="210" r="11"/>
  </g>
  <g fill="#2563eb">
    <rect x="286" y="112" width="68" height="18" rx="9"/>
    <rect x="286" y="154" width="68" height="18" rx="9" opacity=".65"/>
    <rect x="286" y="196" width="68" height="18" rx="9" opacity=".35"/>
  </g>
  <g fill="#f59e0b">
    <rect x="464" y="110" width="26" height="26" rx="6"/>
    <rect x="502" y="110" width="26" height="26" rx="6" opacity=".45"/>
    <rect x="464" y="158" width="26" height="26" rx="6" opacity=".45"/>
    <rect x="502" y="158" width="26" height="26" rx="6"/>
    <rect x="464" y="206" width="26" height="26" rx="6"/>
    <rect x="502" y="206" width="26" height="26" rx="6" opacity=".45"/>
  </g>
  <path d="M216 180h30m146 0h30" stroke="#64707d" stroke-width="8" stroke-linecap="round"/>
</svg>
