<svg xmlns="http://www.w3.org/2000/svg" viewBox="0 0 320 180" role="img" aria-hidden="true">
  <rect width="320" height="180" rx="18" fill="#f8fafc"/>
  <circle cx="122" cy="90" r="52" fill="#14b8a6" opacity=".22"/>
  <circle cx="184" cy="90" r="52" fill="#2563eb" opacity=".22"/>
  <path d="M122 38a52 52 0 0 1 31 10 52 52 0 0 0 0 84 52 52 0 1 1-31-94Z" fill="#14b8a6" opacity=".55"/>
  <path d="M184 38a52 52 0 1 0-31 94 52 52 0 0 0 0-84 52 52 0 0 1 31-10Z" fill="#2563eb" opacity=".5"/>
  <circle cx="153" cy="90" r="23" fill="#7c3aed" opacity=".35"/>
  <rect x="32" y="32" width="256" height="116" rx="14" fill="none" stroke="#0f172a" stroke-width="4" opacity=".14"/>
</svg>
