<svg xmlns="http://www.w3.org/2000/svg" viewBox="0 0 640 360" role="img" aria-label="Схема агрегации по осям">
  <rect width="640" height="360" fill="#f9fbfc"/>
  <g transform="translate(92 82)" stroke="#0f766e" fill="#d9f3ef">
    <rect width="76" height="56" rx="6"/><rect x="86" width="76" height="56" rx="6"/><rect x="172" width="76" height="56" rx="6"/>
    <rect y="66" width="76" height="56" rx="6"/><rect x="86" y="66" width="76" height="56" rx="6"/><rect x="172" y="66" width="76" height="56" rx="6"/>
  </g>
  <g stroke="#2563eb" stroke-width="5" stroke-linecap="round" fill="none">
    <path d="M130 70v165"/><path d="M114 216l16 20 16-20"/>
    <path d="M216 70v165"/><path d="M200 216l16 20 16-20"/>
    <path d="M302 70v165"/><path d="M286 216l16 20 16-20"/>
  </g>
  <g stroke="#a15c00" stroke-width="5" stroke-linecap="round" fill="none">
    <path d="M390 124h166"/><path d="M536 108l22 16-22 16"/>
    <path d="M390 190h166"/><path d="M536 174l22 16-22 16"/>
  </g>
</svg>
