<svg xmlns="http://www.w3.org/2000/svg" viewBox="0 0 640 360" role="img" aria-label="Схема создания массивов">
  <rect width="640" height="360" fill="#f9fbfc"/>
  <g transform="translate(66 74)" stroke="#0f766e" fill="#d9f3ef">
    <rect width="60" height="48" rx="6"/><rect x="70" width="60" height="48" rx="6"/><rect x="140" width="60" height="48" rx="6"/>
    <rect y="58" width="60" height="48" rx="6"/><rect x="70" y="58" width="60" height="48" rx="6"/><rect x="140" y="58" width="60" height="48" rx="6"/>
  </g>
  <g transform="translate(330 84)" fill="#e8f0ff" stroke="#2563eb">
    <circle cx="0" cy="0" r="16"/><circle cx="48" cy="0" r="16"/><circle cx="96" cy="0" r="16"/><circle cx="144" cy="0" r="16"/><circle cx="192" cy="0" r="16"/>
  </g>
  <g transform="translate(330 210)" fill="#fff4db" stroke="#a15c00">
    <circle cx="0" cy="0" r="16"/><circle cx="64" cy="0" r="16"/><circle cx="128" cy="0" r="16"/><circle cx="192" cy="0" r="16"/>
  </g>
  <path d="M88 270h456" stroke="#d9e0e7" stroke-width="8" stroke-linecap="round"/>
</svg>
