<svg xmlns="http://www.w3.org/2000/svg" viewBox="0 0 640 360" role="img" aria-label="DataFrame">
  <rect width="640" height="360" fill="#f9fbfc"/>
  <text x="40" y="48" font-family="Arial" font-size="24" font-weight="700" fill="#17202a">Pandas DataFrame</text>
  <g transform="translate(66 82)" font-family="Arial" font-size="17">
    <rect width="500" height="220" rx="8" fill="#ffffff" stroke="#d9e0e7"/>
    <rect width="500" height="44" rx="8" fill="#e8f0ff" stroke="#2563eb"/>
    <text x="92" y="28" fill="#17202a">carat</text>
    <text x="202" y="28" fill="#17202a">cut</text>
    <text x="312" y="28" fill="#17202a">price</text>
    <text x="424" y="28" fill="#17202a">color</text>
    <g fill="#365267">
      <text x="20" y="82">0</text><text x="92" y="82">1.2</text><text x="202" y="82">Ideal</text><text x="312" y="82">5500</text><text x="424" y="82">D</text>
      <text x="20" y="126">1</text><text x="92" y="126">0.7</text><text x="202" y="126">Good</text><text x="312" y="126">2100</text><text x="424" y="126">E</text>
      <text x="20" y="170">2</text><text x="92" y="170">1.5</text><text x="202" y="170">Fair</text><text x="312" y="170">7200</text><text x="424" y="170">G</text>
    </g>
    <path d="M70 44v176M180 44v176M290 44v176M400 44v176" stroke="#d9e0e7"/>
    <path d="M0 96h500M0 140h500M0 184h500" stroke="#d9e0e7"/>
  </g>
  <text x="82" y="334" font-family="Consolas" font-size="20" fill="#0f766e">pd.read_csv(...) -> DataFrame</text>
</svg>
