<svg xmlns="http://www.w3.org/2000/svg" viewBox="0 0 640 360" role="img" aria-label="Схема булевой маски">
  <rect width="640" height="360" fill="#f9fbfc"/>
  <g transform="translate(74 80)" stroke-width="3">
    <g fill="#ffffff" stroke="#d9e0e7"><rect width="62" height="48" rx="6"/><rect x="72" width="62" height="48" rx="6"/><rect x="144" width="62" height="48" rx="6"/><rect x="216" width="62" height="48" rx="6"/><rect x="288" width="62" height="48" rx="6"/><rect x="360" width="62" height="48" rx="6"/></g>
    <g fill="#d9f3ef" stroke="#0f766e"><rect y="82" width="62" height="48" rx="6"/><rect x="72" y="82" width="62" height="48" rx="6"/><rect x="144" y="82" width="62" height="48" rx="6"/></g>
    <g fill="#fff2f0" stroke="#b42318"><rect x="216" y="82" width="62" height="48" rx="6"/><rect x="288" y="82" width="62" height="48" rx="6"/><rect x="360" y="82" width="62" height="48" rx="6"/></g>
  </g>
  <path d="M286 240v40" stroke="#2563eb" stroke-width="6" stroke-linecap="round"/>
  <path d="M264 260l22 24 22-24" fill="none" stroke="#2563eb" stroke-width="6" stroke-linecap="round" stroke-linejoin="round"/>
  <g transform="translate(154 302)" fill="#d9f3ef" stroke="#0f766e" stroke-width="3"><rect width="62" height="34" rx="6"/><rect x="72" width="62" height="34" rx="6"/><rect x="144" width="62" height="34" rx="6"/></g>
</svg>
