<svg xmlns="http://www.w3.org/2000/svg" viewBox="0 0 640 360" role="img" aria-label="Схема операций с матрицами">
  <rect width="640" height="360" fill="#f9fbfc"/>
  <g transform="translate(74 78)" fill="#d9f3ef" stroke="#0f766e" stroke-width="3">
    <rect width="62" height="54" rx="6"/><rect x="72" width="62" height="54" rx="6"/><rect y="64" width="62" height="54" rx="6"/><rect x="72" y="64" width="62" height="54" rx="6"/>
  </g>
  <g transform="translate(250 78)" fill="#e8f0ff" stroke="#2563eb" stroke-width="3">
    <rect width="62" height="54" rx="6"/><rect x="72" width="62" height="54" rx="6"/><rect y="64" width="62" height="54" rx="6"/><rect x="72" y="64" width="62" height="54" rx="6"/>
  </g>
  <path d="M432 138h70" stroke="#64707d" stroke-width="6" stroke-linecap="round"/>
  <path d="M484 116l30 22-30 22" fill="none" stroke="#64707d" stroke-width="6" stroke-linecap="round" stroke-linejoin="round"/>
  <g transform="translate(74 228)" fill="#fff4db" stroke="#a15c00" stroke-width="3">
    <circle cx="0" cy="0" r="16"/><circle cx="42" cy="0" r="16"/><circle cx="84" cy="0" r="16"/><circle cx="126" cy="0" r="16"/>
  </g>
  <g transform="translate(378 216)" fill="#ffffff" stroke="#d9e0e7" stroke-width="3">
    <rect width="120" height="84" rx="8"/><path d="M60 0v84M0 42h120"/>
  </g>
</svg>
