<svg xmlns="http://www.w3.org/2000/svg" viewBox="0 0 640 360" role="img" aria-label="Схема пропущенных значений">
  <rect width="640" height="360" fill="#f9fbfc"/>
  <g transform="translate(76 84)" stroke-width="3">
    <g fill="#ffffff" stroke="#d9e0e7"><rect width="78" height="52" rx="6"/><rect x="88" width="78" height="52" rx="6"/><rect x="176" width="78" height="52" rx="6"/><rect y="62" width="78" height="52" rx="6"/><rect x="88" y="62" width="78" height="52" rx="6"/><rect x="176" y="62" width="78" height="52" rx="6"/></g>
    <g fill="#fff2f0" stroke="#b42318"><rect x="88" width="78" height="52" rx="6"/><rect y="62" width="78" height="52" rx="6"/></g>
  </g>
  <path d="M370 174h98" stroke="#2563eb" stroke-width="6" stroke-linecap="round"/>
  <path d="M448 152l30 22-30 22" fill="none" stroke="#2563eb" stroke-width="6" stroke-linecap="round" stroke-linejoin="round"/>
  <g transform="translate(516 106)" stroke="#0f766e" stroke-width="5" stroke-linecap="round" fill="none"><path d="M0 40l24 24 54-66"/></g>
  <g transform="translate(516 220)" stroke="#b42318" stroke-width="5" stroke-linecap="round"><path d="M0 0l54 54M54 0L0 54"/></g>
</svg>
