<svg xmlns="http://www.w3.org/2000/svg" viewBox="0 0 640 360" role="img" aria-label="Схема ошибки прогноза">
  <rect width="640" height="360" fill="#f9fbfc"/>
  <line x1="72" y1="286" x2="580" y2="286" stroke="#d9e0e7" stroke-width="2"/>
  <line x1="72" y1="76" x2="72" y2="286" stroke="#d9e0e7" stroke-width="2"/>
  <polyline points="90,250 160,204 230,216 300,146 370,120 440,156 510,94" fill="none" stroke="#0f766e" stroke-width="5"/>
  <polyline points="90,236 160,228 230,186 300,168 370,140 440,124 510,118" fill="none" stroke="#2563eb" stroke-width="5" stroke-dasharray="9 8"/>
  <g stroke="#b42318" stroke-width="4">
    <line x1="90" y1="250" x2="90" y2="236"/><line x1="160" y1="204" x2="160" y2="228"/><line x1="230" y1="216" x2="230" y2="186"/>
    <line x1="300" y1="146" x2="300" y2="168"/><line x1="370" y1="120" x2="370" y2="140"/><line x1="440" y1="156" x2="440" y2="124"/><line x1="510" y1="94" x2="510" y2="118"/>
  </g>
  <g fill="#fff4db" stroke="#a15c00"><circle cx="160" cy="228" r="8"/><circle cx="230" cy="186" r="8"/><circle cx="440" cy="124" r="8"/></g>
</svg>
